<svg xmlns="http://www.w3.org/2000/svg" viewBox="0 0 412.39 263.06"><defs><style>.cls-1{fill:#206fc3;}.cls-2{fill:#df800c;}.cls-3{fill:#fff;}.cls-4{fill:#1c390a;}</style></defs><title>dad-talk-permanent</title><g id="Layer_2" data-name="Layer 2"><g id="Layer_1-2" data-name="Layer 1"><path class="cls-1" d="M376.92,120.86S269.84,74.18,177.8,107.54,179,217.17,238.15,223.28s80,5.39,83.58,9.34,4.2,15.12-20.81,25c0,0,4.5,8.54,23.37,4.16s81.12-39.72,86.83-71.86S402.87,129.9,376.92,120.86Z"/><path class="cls-2" d="M54.37,1.84S82.48,16.4,83,19.52s-2.08,6.77-7.11,8.68C53.06,36.87,20.46,50.17,7.24,72A53,53,0,0,0,.17,95.66C-2.75,136.52,33,154.24,66.58,164.55c81.2,24.95,136.85-51.75,139.62-67.19s8.81-68.87-54-86.19S54.37,1.84,54.37,1.84Z"/><path class="cls-3" d="M50.46,125.74a6,6,0,0,1-3.21-1.07,6.91,6.91,0,0,1-2-2.33,14.71,14.71,0,0,1-1.21-3.18c-.31-1.17-.64-2.39-1-3.65a5,5,0,0,1,.45-1.57,2.57,2.57,0,0,0,.09-1.72c.25-1.5.47-2.94.64-4.34a21.37,21.37,0,0,0,.12-4.24,2.37,2.37,0,0,1,.66-.93,33.43,33.43,0,0,0-1.15-7.78,45.82,45.82,0,0,0-2.55-7.14,4.54,4.54,0,0,1,0-1.13.78.78,0,0,0-.1-.63q-.24-.57.3-.66l1.06-.17a6.92,6.92,0,0,0-.82-2.29,27.38,27.38,0,0,1-1.28-2.55,10.26,10.26,0,0,0,.35-2.44,6.19,6.19,0,0,1,.38-2.17,45,45,0,0,1,4.44.83l4.32,1c1.42.33,2.81.64,4.18.94a32.25,32.25,0,0,0,4,.6c2.13,1,4.31,2.09,6.55,3.1A40.27,40.27,0,0,1,71,85.77,22.59,22.59,0,0,1,76,90.62a18.23,18.23,0,0,1,3.15,7c0,.28-.07.51-.09.7s0,.37,0,.55a2.13,2.13,0,0,0,0,.61q.06.33.15.93a24.27,24.27,0,0,1-4.86,8,49.6,49.6,0,0,1-7.13,6.36,99,99,0,0,1-8.32,5.5Q54.57,123,50.46,125.74Zm.26-38.68a1.2,1.2,0,0,0-.82.4A54.12,54.12,0,0,1,52,92.9a40.18,40.18,0,0,1,1.91,10.72q.14,2.85.08,6.19a5,5,0,0,0,1.47-.58c.41-.25.83-.52,1.26-.82a14.13,14.13,0,0,1,1.36-.84,7.18,7.18,0,0,1,1.7-.63,2.17,2.17,0,0,1,.56-.94,6.52,6.52,0,0,0,.66-.76c1-.62,2.06-1.27,3.08-1.94a20.51,20.51,0,0,0,2.78-2.16,15.29,15.29,0,0,0,2.16-2.54,10.4,10.4,0,0,0,1.39-3.16A6.29,6.29,0,0,0,68.86,94c-.58-.38-1.19-.76-1.82-1.13s-1.24-.77-1.83-1.19a6.44,6.44,0,0,1-1.52-1.56,5.28,5.28,0,0,1-1.95-.25c-.58-.2-1.14-.41-1.67-.61a17.81,17.81,0,0,0-1.7-.57,5.13,5.13,0,0,0-2-.14A14.56,14.56,0,0,0,53,87.73,5.09,5.09,0,0,1,50.72,87.06Z"/><path class="cls-3" d="M81.06,113.43l.75-.8-.16-1.41q1-4.32,2.12-8.32t2.42-8.24c.26-.91.52-1.81.81-2.72s.54-1.84.79-2.79a3.05,3.05,0,0,1-.16-.56,2.48,2.48,0,0,1,0-.71,24.84,24.84,0,0,0,1.1-2.64c.25-.77.5-1.56.73-2.37S90,81,90.33,80a14.81,14.81,0,0,1,1.33-2.88l.35-.74.74,0a4,4,0,0,1,.53-.33,2.72,2.72,0,0,1,.74-.22h1.23a11.83,11.83,0,0,0,3.4-3.53,37.12,37.12,0,0,0,2.66-5.11l.61-1.26,1.17.49a4.74,4.74,0,0,0,1.13.22c.51,0,1,.12,1.6.21,1,.07,1.91.17,2.85.31a5.24,5.24,0,0,1,2.25.82l.43.54c.16.48.32.9.45,1.29s.27.77.43,1.16c.33.89.64,1.79.92,2.67s.54,1.88.77,3c.36.85.72,1.71,1.07,2.58s.69,1.74,1,2.6c.44,1.24.88,2.43,1.34,3.56A21,21,0,0,0,119,88.47a2.83,2.83,0,0,1,.81-.07,5.72,5.72,0,0,1,1.79-.7l.85-.21.4.75a2.64,2.64,0,0,0,.39.34,4.37,4.37,0,0,0,.53.32,3,3,0,0,1,1.63.18,6.66,6.66,0,0,1,1,.55,3.59,3.59,0,0,0,.38.25,1.74,1.74,0,0,0,.37.18l1.27.26-.45,1.37a10.25,10.25,0,0,1-1.77,3.09,14,14,0,0,1-3,2.74,5.15,5.15,0,0,1,.31.84,6.23,6.23,0,0,0,.32.9c.32.86.62,1.75.89,2.68a11.82,11.82,0,0,1,.45,3,16.76,16.76,0,0,1-1,3.34,12.63,12.63,0,0,1-1.72,2.8,10.73,10.73,0,0,1-2.45,2.25,8.27,8.27,0,0,1-3.06,1.29,4.62,4.62,0,0,1-1.44-.24,6.74,6.74,0,0,1-.85-.4,4.23,4.23,0,0,0-1-.39l-.92-.25.1-1a1.06,1.06,0,0,0-.19-.92,5.3,5.3,0,0,0-1.14-.9,3.62,3.62,0,0,1-.54-.36c-.15-.13-.34-.27-.54-.42l-1.58-1.3,2.09-1a5.17,5.17,0,0,0,2.42-1.8,4.49,4.49,0,0,0,0-3,6.91,6.91,0,0,0-2.74.35c-.68.27-1.36.55-2,.85-1,.43-1.93.83-2.87,1.19a16,16,0,0,1-3.13.83,15.33,15.33,0,0,1-2.42.19l-.74.06-.32-.7a.55.55,0,0,0-.22-.27l-.35-.25c-.26-.23-.59-.53-1-.93a1.92,1.92,0,0,1-.47-1.62,3.41,3.41,0,0,1-.79-1.44,10.79,10.79,0,0,0-.26,1.1c-.05.35-.1.69-.14,1l-.12.91-.84.28a1,1,0,0,0-.16.43.53.53,0,0,0,0,.41l.39.68-.57.71a1.31,1.31,0,0,1-.27.38,2,2,0,0,0-.29.32,8.61,8.61,0,0,1-.14,1.46q-.12.7-.27,1.41c-.11.74-.2,1.46-.29,2.16a7,7,0,0,0,0,2l-.12.9a2.4,2.4,0,0,1-.7.94c-.3.23-.6.44-.88.62a2.78,2.78,0,0,0-.84.68l-.06.9-1,.3-1.18.47a5.19,5.19,0,0,1-.82.2l-.88.08c-.62-.45-1.11-.78-1.49-1a5.85,5.85,0,0,0-1.29-.57l-.49-.46a3.42,3.42,0,0,1-.49-.91,7.28,7.28,0,0,0-.34-.86,2.87,2.87,0,0,0-.6-1.13ZM99.35,92.68c-.47,1-.91,2-1.33,3.08a6,6,0,0,1,.89-.21,6.29,6.29,0,0,0,.88-.22c1.53-.34,2.95-.69,4.26-1s2.7-.82,4.2-1.38q-.94-2.37-2-4.82c-.71-1.63-1.44-3.27-2.22-4.91l-.22.72a45,45,0,0,0-2.54,4.37,31.28,31.28,0,0,0-1.87,4.33Z"/><path class="cls-3" d="M138.13,111.18a5.9,5.9,0,0,1-3.21-1.07,6.82,6.82,0,0,1-1.95-2.33,14.82,14.82,0,0,1-1.21-3.17c-.31-1.18-.64-2.4-1-3.66a5.08,5.08,0,0,1,.45-1.57,2.57,2.57,0,0,0,.09-1.72c.25-1.49.47-2.94.64-4.33a21.39,21.39,0,0,0,.12-4.24,2.22,2.22,0,0,1,.66-.93,32.42,32.42,0,0,0-1.16-7.78A44.82,44.82,0,0,0,129,73.24a5.07,5.07,0,0,1,0-1.13.77.77,0,0,0-.1-.63c-.16-.38-.06-.61.3-.66l1.06-.18a6.79,6.79,0,0,0-.82-2.28c-.42-.73-.84-1.58-1.28-2.55a10.4,10.4,0,0,0,.35-2.44,6.24,6.24,0,0,1,.38-2.18c1.49.21,3,.48,4.44.83l4.32,1c1.42.33,2.81.65,4.18.94a29.08,29.08,0,0,0,4,.6c2.13,1.06,4.31,2.09,6.55,3.11a39,39,0,0,1,6.24,3.53,22.33,22.33,0,0,1,5.06,4.84,18.13,18.13,0,0,1,3.15,7q-.06.42-.09.69c0,.19,0,.37,0,.56a2.08,2.08,0,0,0,0,.6q.06.33.15.93a24.17,24.17,0,0,1-4.86,8,48.43,48.43,0,0,1-7.13,6.36q-3.94,2.91-8.31,5.51T138.13,111.18Zm.26-38.68a1.21,1.21,0,0,0-.82.41,52.32,52.32,0,0,1,2.13,5.44A40,40,0,0,1,141,83.58a40.45,40.45,0,0,1,.6,5.49c.09,1.89.12,4,.08,6.19a5.31,5.31,0,0,0,1.47-.59c.41-.25.83-.52,1.26-.82a14.13,14.13,0,0,1,1.36-.84,6.77,6.77,0,0,1,1.7-.62,2.21,2.21,0,0,1,.56-1,5.72,5.72,0,0,0,.66-.75c1-.63,2.06-1.28,3.08-2a19.75,19.75,0,0,0,2.78-2.16A15.42,15.42,0,0,0,156.73,84a10.17,10.17,0,0,0,1.38-3.16,6.63,6.63,0,0,0-1.57-1.48c-.59-.38-1.2-.75-1.83-1.13s-1.24-.77-1.83-1.19a6.22,6.22,0,0,1-1.52-1.55,5.27,5.27,0,0,1-2-.26c-.58-.2-1.14-.4-1.67-.61s-1.1-.39-1.7-.57a5.32,5.32,0,0,0-2-.14,15,15,0,0,0-3.33-.77A5.09,5.09,0,0,1,138.39,72.5Z"/><path class="cls-3" d="M192.27,147.52a4,4,0,0,0-.2-1c-.11-.3-.22-.62-.34-1a15.18,15.18,0,0,1-.56-1.76,8,8,0,0,1-.2-2.23,2.83,2.83,0,0,1,.36-1,3,3,0,0,1,.42-.49l.3-1.2,1,0a8,8,0,0,0,1.11.1l1.11,0c1.7.05,3.45,0,5.25,0s3.63-.19,5.52-.31q3.1-.32,6.67-.41c.24-.49.39-.8.46-.93l.25-.46.75-.38a3.56,3.56,0,0,1,2.14.43,4.88,4.88,0,0,1,.92.87q1.75-.09,3.57-.27l3.78-.39,5.46-.52a44.74,44.74,0,0,1,5.39-.18c.76,0,1.48.07,2.14.13s1.32.16,1.95.26l.79.63a3.94,3.94,0,0,0,.64.89,8.52,8.52,0,0,0,.92.84,12.9,12.9,0,0,1,1.92,2.07,4.7,4.7,0,0,1,.61,3.58l-.36.67a4.12,4.12,0,0,1-.69.51l-.7.86-.74,0a3.56,3.56,0,0,0-1,.07,7.24,7.24,0,0,0-.81.28,6.09,6.09,0,0,1-.61.22l-.75.21c-.49-.06-.87-.09-1.14-.1l-.94,0a39.17,39.17,0,0,0-4.37.14c-1.58.13-3.11.29-4.59.47l-3.1.28-2.7.23c-.48,1.15-.92,2.17-1.3,3.05s-.79,1.77-1.22,2.66-.84,1.78-1.22,2.68a30,30,0,0,0-1.1,3,19.7,19.7,0,0,0-1.41,2.28,12.3,12.3,0,0,0-1,2.49,7.21,7.21,0,0,0-1.52,2.45c-.32.89-.59,1.64-.84,2.26l-.3,1a2.65,2.65,0,0,0-.59.72,2.16,2.16,0,0,1-.39.6,10.18,10.18,0,0,1-.58,1.66c-.1.22-.19.46-.29.7a.91.91,0,0,0-.09.57,3.18,3.18,0,0,1-.43,1.13,5.29,5.29,0,0,1-.09.8c-.06.27-.11.54-.16.81s-.17.58-.23.83a1.32,1.32,0,0,0,.05.71l.39.55a2.25,2.25,0,0,1,.31.68.93.93,0,0,0,.33.21.78.78,0,0,1,.33.21,2,2,0,0,0,1,.57l.64.82a4.44,4.44,0,0,1-.84,3.74,4.81,4.81,0,0,1-4.08,1.43l-.94-.09a4.35,4.35,0,0,1-.52-.62l-1-.47a1.84,1.84,0,0,1-.72-.66.59.59,0,0,0-.33-.18.59.59,0,0,1-.33-.17,4,4,0,0,1-1.06-.51l-.73-.42c.06-.45.09-.76.1-.94a6.09,6.09,0,0,1-.8-1.64,16.32,16.32,0,0,1-.45-1.83l-.33-1.35a3.25,3.25,0,0,0-.47-1.09,24,24,0,0,1,1.11-7.87q1.1-3.17,2.4-6.15c.47-1.06.93-2.15,1.37-3.26s.83-2.24,1.17-3.39l.76-.72a4.76,4.76,0,0,1,.62-.45,4.72,4.72,0,0,1,.39-1.71c.24-.55.5-1.11.79-1.69.19-.35.36-.7.53-1.06a3.75,3.75,0,0,0,.33-.93,7.64,7.64,0,0,0-.84,0,7.47,7.47,0,0,0-.77.08,7.69,7.69,0,0,1-1.69.15,4,4,0,0,1-.87-.09,2.59,2.59,0,0,1-1,.27c-.31,0-.63,0-.94,0l-.81,0-.8,0a3.3,3.3,0,0,0-1.28.16l-1.21,0-.61,0-.81,0-.8,0a8.21,8.21,0,0,1-1.21-.13,4.37,4.37,0,0,1-1.39-.55l-.46-.55c-.25-.5-.49-.78-.71-.83l-.74-.22Z"/><path class="cls-3" d="M226.5,180.06l.89-.64.11-1.41q1.8-4,3.69-7.76t3.95-7.62q.65-1.26,1.32-2.52t1.32-2.58a2.2,2.2,0,0,1-.05-.58,2.68,2.68,0,0,1,.15-.7,23.36,23.36,0,0,0,1.59-2.37q.6-1.06,1.17-2.19c.43-.88.89-1.76,1.39-2.65a15,15,0,0,1,1.86-2.57l.49-.65.73.08a5.71,5.71,0,0,1,.58-.21,2.25,2.25,0,0,1,.78-.08l1.2.23a11.69,11.69,0,0,0,4-2.8,37.6,37.6,0,0,0,3.59-4.51l.84-1.11,1.06.7a4.2,4.2,0,0,0,1.06.43c.49.15,1,.33,1.53.52.94.25,1.85.54,2.74.85a5.1,5.1,0,0,1,2,1.24l.32.61c.08.5.14.95.2,1.35s.12.82.2,1.22c.15.95.28,1.88.39,2.8s.16,2,.18,3.07c.2.9.38,1.82.56,2.74s.33,1.84.49,2.74q.27,2,.63,3.75a20.77,20.77,0,0,0,1,3.42,3.33,3.33,0,0,1,.81.09,5.9,5.9,0,0,1,1.89-.34l.88-.05.24.82a2.37,2.37,0,0,0,.33.41,4.63,4.63,0,0,0,.45.42,3,3,0,0,1,1.57.48,7.89,7.89,0,0,1,.82.73c.09.09.2.2.33.31a1.78,1.78,0,0,0,.33.25l1.19.5-.71,1.26a9.81,9.81,0,0,1-2.33,2.69,13.86,13.86,0,0,1-3.46,2.12,4.32,4.32,0,0,1,.14.88,6.67,6.67,0,0,0,.15.94c.15.9.27,1.84.35,2.8a12.59,12.59,0,0,1-.12,3,16,16,0,0,1-1.67,3.08,12.43,12.43,0,0,1-2.22,2.42,11,11,0,0,1-2.84,1.74,8.72,8.72,0,0,1-3.25.68,5.08,5.08,0,0,1-1.37-.51,8.61,8.61,0,0,1-.75-.56,4.78,4.78,0,0,0-.86-.57l-.86-.43.29-1a1,1,0,0,0,0-.94,5.65,5.65,0,0,0-.94-1.1,2.81,2.81,0,0,1-.46-.45A6.63,6.63,0,0,0,256,182l-1.3-1.59,2.24-.53a5.24,5.24,0,0,0,2.73-1.3,4.51,4.51,0,0,0,.62-3,7.13,7.13,0,0,0-2.75-.18c-.72.14-1.44.28-2.17.44-1,.24-2.05.45-3,.62a15.77,15.77,0,0,1-5.65-.07l-.73-.08-.18-.75a.54.54,0,0,0-.16-.31l-.3-.31c-.21-.27-.47-.64-.77-1.1a1.92,1.92,0,0,1-.15-1.68,3.37,3.37,0,0,1-.5-1.56,7.1,7.1,0,0,0-.46,1q-.19.49-.33,1l-.3.87-.88.1a1.24,1.24,0,0,0-.24.4.5.5,0,0,0,0,.4l.25.75-.69.59a1.19,1.19,0,0,1-.35.32,2.51,2.51,0,0,0-.34.26,9.91,9.91,0,0,1-.41,1.4c-.17.45-.35.89-.55,1.33l-.69,2.06a6.78,6.78,0,0,0-.37,2l-.29.87a2.21,2.21,0,0,1-.86.78,10.41,10.41,0,0,1-1,.44,3.17,3.17,0,0,0-1,.51l-.22.87-1,.1-1.25.24a5.5,5.5,0,0,1-.84,0l-.87-.09c-.52-.56-.95-1-1.28-1.28a5.24,5.24,0,0,0-1.15-.81l-.39-.55a3.43,3.43,0,0,1-.3-1,8.58,8.58,0,0,0-.18-.91,2.58,2.58,0,0,0-.37-1.22Zm21.94-16.84c-.65.88-1.28,1.8-1.9,2.77a5.69,5.69,0,0,1,.91,0,7,7,0,0,0,.91,0q2.35-.07,4.38-.21c1.35-.1,2.81-.28,4.39-.55-.31-1.66-.66-3.37-1-5.1s-.78-3.49-1.22-5.25l-.36.66a47.47,47.47,0,0,0-3.34,3.8,33.2,33.2,0,0,0-2.67,3.89Z"/><path class="cls-3" d="M280.27,185.54a3.19,3.19,0,0,1-.45-.66,3.65,3.65,0,0,1-.31-1,9,9,0,0,1-1.4-2.66,14.68,14.68,0,0,1-.65-3.08,15.57,15.57,0,0,1,0-3.2,19.38,19.38,0,0,1,.56-3,13.59,13.59,0,0,0,.37-1.4c.25-.84.5-1.68.75-2.5a5.32,5.32,0,0,1,1.07-2,2.22,2.22,0,0,1,.11-1.61q.36-.87.72-1.59a1.57,1.57,0,0,0,.21-.37q.08-.17.15-.3.87-2.32,1.71-4.48c.56-1.44,1.1-2.83,1.63-4.16q1.46-3.66,2.8-7.18t2.47-7.53a3.49,3.49,0,0,1,1-.51l.34-.12a1.68,1.68,0,0,1,.47-.06,22.78,22.78,0,0,0,3.29,1.48,10.52,10.52,0,0,0,3.24.73l1.11,1a13.6,13.6,0,0,1,1.45,2.16,4.31,4.31,0,0,1,.29,2.87,2.14,2.14,0,0,1-.69.72,23.13,23.13,0,0,1-1,2.7c-.33.77-.67,1.51-1,2.22s-.75,1.59-1.08,2.39a17.4,17.4,0,0,0-.9,2.93,2.5,2.5,0,0,0-.52.79c-.08.23-.16.45-.26.67a8,8,0,0,1-.36.83,2,2,0,0,1-.63.75,13.83,13.83,0,0,1-.9,3.37l-1.15,2.56c-.68,1.55-1.3,3.09-1.89,4.62a18.83,18.83,0,0,0-1.09,5.25,5.76,5.76,0,0,1,1.48-.16,5,5,0,0,1,1.68.32,14.83,14.83,0,0,1,5.31-1.33c1.91-.12,3.81-.18,5.69-.17,1.57,0,3,0,4.37-.07a3.67,3.67,0,0,0,.86.53,6.42,6.42,0,0,0,.67.05h.41a3.61,3.61,0,0,1,.53.08,5.8,5.8,0,0,0,1.78,1.37c.57.26,1.2.52,1.86.76s1.14.49,1.69.75a8.32,8.32,0,0,1,1.62,1l.51,3.44c.34.51.49.85.44,1a1.67,1.67,0,0,1-.3.94l.11.87a4.8,4.8,0,0,0-1.7.53,8.46,8.46,0,0,0-.89.74c-.5,0-1,0-1.42,0a9.89,9.89,0,0,0-2.76.32,12.92,12.92,0,0,0-4.42-.87c-.62,0-1.26,0-1.91,0s-1.29.08-1.92.15-1.35.13-2,.18-1.34.06-2,0l-1.15.17a3.33,3.33,0,0,0-.67.18q-2.31.67-5,1.33a20.06,20.06,0,0,1-5.37.59,9.66,9.66,0,0,1-6.32-2.21,8.08,8.08,0,0,0-.38-.82A4,4,0,0,1,280.27,185.54Z"/><path class="cls-3" d="M321.62,176.93c.05-.18.08-.31.11-.4s-.05-.21-.23-.35c-.08-.31,0-.51.22-.6l.68-.25A33.74,33.74,0,0,1,324,168c.75-2.2,1.58-4.34,2.47-6.42s1.78-4.17,2.67-6.28a45.26,45.26,0,0,0,2.25-6.89,7.42,7.42,0,0,0,1.51-2c.4-.8.81-1.6,1.21-2.42a17.07,17.07,0,0,1,1.42-2.35,5.91,5.91,0,0,1,2.17-1.82,5.71,5.71,0,0,1,1.1.27,10.38,10.38,0,0,1,1,.4,6.77,6.77,0,0,0,1,.36,4.68,4.68,0,0,0,1.14.17,4,4,0,0,1,.45.79,2.75,2.75,0,0,0,.51.79l1.22-.17a7.51,7.51,0,0,1,1.49,1.89,7.9,7.9,0,0,1,.88,2.31,4.44,4.44,0,0,1-.14,2.29,2.84,2.84,0,0,1-1.6,1.67,1.28,1.28,0,0,1,0,.6,2.12,2.12,0,0,1-.18.37.62.62,0,0,0-.11.33c0,.11.08.26.25.44a6.8,6.8,0,0,0-1.38,1.48,10,10,0,0,0-1.07,1.88,13.17,13.17,0,0,0-.69,2,12,12,0,0,0-.36,1.87,28.44,28.44,0,0,1,4.68-3.63q2.67-1.66,4.66-3.16c1.05-.68,2-1.34,2.78-2s1.62-1.2,2.44-1.74,1.68-1,2.57-1.54,1.79-1,2.7-1.64a1.56,1.56,0,0,1,1.05-.1,4.22,4.22,0,0,1,.7.36c.05-.32,0-.51-.19-.58s-.24-.29-.18-.65a11.15,11.15,0,0,0,2.07-.74,20.18,20.18,0,0,1,1.94-.82c.43.51.87,1,1.3,1.62a2.42,2.42,0,0,0,1.79,1,3.39,3.39,0,0,0,.93,1.34c.37.3.75.59,1.12.87a4.06,4.06,0,0,1,.94,1,3.45,3.45,0,0,1,.42,1.8c-.19.35-.41.74-.67,1.16a6.51,6.51,0,0,0-.68,1.56,29.18,29.18,0,0,1-3.34,2.49c-1.12.71-2.26,1.38-3.42,2l-3.56,2a36,36,0,0,0-3.66,2.38,4.66,4.66,0,0,1-1,1c-.42.31-.84.6-1.27.87s-.85.58-1.24.88a3.48,3.48,0,0,0-.94,1.11,3.39,3.39,0,0,0-.47,0l-.47.09a2.25,2.25,0,0,1-.8.85,1.77,1.77,0,0,0-.73.85,9.47,9.47,0,0,0,3,4.06,13.37,13.37,0,0,0,4.31,2.08,24,24,0,0,0,5.22.82q2.82.15,5.85.24c.22,0,.33-.16.31-.36s.11-.28.38-.23a6.69,6.69,0,0,1,1.65.86,14.16,14.16,0,0,1,1.25,1.05q.58.56,1.14,1.14a16.93,16.93,0,0,0,1.28,1.21,8.14,8.14,0,0,1-2,5.09,12.18,12.18,0,0,1-4.63,3.06,46.47,46.47,0,0,1-6.78-.4,21.81,21.81,0,0,1-5.67-1.65c-.13,0-.25-.18-.36-.41a1.17,1.17,0,0,0-1.49-.78,2.33,2.33,0,0,1-1.13-.17,15.31,15.31,0,0,1-1.95-1.27c-.9-.65-1.72-1.26-2.47-1.82-.92-.79-1.8-1.57-2.66-2.33a14.81,14.81,0,0,1-2.24-2.52.62.62,0,0,0-.56-.35,1.39,1.39,0,0,1-.7-.23,14,14,0,0,0-4,3.55q-1.65,2.14-3.19,4.35a46.75,46.75,0,0,1-3.25,4.14,10.86,10.86,0,0,1-4.22,2.94,3.25,3.25,0,0,1-1.27-.28,5.18,5.18,0,0,1-1-.63c-.31-.26-.61-.5-.92-.73a3,3,0,0,0-1.06-.51,4.37,4.37,0,0,0-.32-1.79c-.23-.56-.46-1.09-.69-1.56a6.57,6.57,0,0,1-.5-1.4,1.51,1.51,0,0,1,.41-1.33A11.48,11.48,0,0,0,321,181a1.18,1.18,0,0,0,.46-.86,2.12,2.12,0,0,0-.21-.82,3.61,3.61,0,0,1-.28-.84,1.27,1.27,0,0,1,.27-1c.18,0,.26-.13.24-.26A.31.31,0,0,1,321.62,176.93Z"/><path class="cls-4" d="M205.48,100.87a190.52,190.52,0,0,0-27.68,7.67c-36.3,13.16-43.78,33-35.91,52.55C177.75,145.15,200.92,113.33,205.48,100.87Z"/></g></g></svg>