<?xml version="1.0" encoding="UTF-8"?>
<svg width="88px" height="84px" viewBox="0 0 88 84" version="1.1" xmlns="http://www.w3.org/2000/svg" xmlns:xlink="http://www.w3.org/1999/xlink">
    <!-- Generator: Sketch 49.3 (51167) - http://www.bohemiancoding.com/sketch -->
    <title>Shape</title>
    <desc>Created with Sketch.</desc>
    <defs></defs>
    <g id="Page-1" stroke="none" stroke-width="1" fill="none" fill-rule="evenodd">
        <g id="thumbs-up" fill="#FCFCFC" fill-rule="nonzero">
            <g id="Group" transform="translate(0.000000, 0.637820)">
                <path d="M36.688557,8.21491 C36.253657,19.68151 34.769457,26.47631 27.657257,36.71491 C26.768557,35.29911 25.212657,34.33991 23.438557,34.33991 L5.438557,34.33991 C2.7031575,34.33991 0.4385574,36.60451 0.4385574,39.3399 L0.4385574,75.34 C0.4385574,78.0754 2.7031575,80.34 5.438557,80.34 L23.438557,80.34 C25.163257,80.34 26.694057,79.4409 27.594757,78.09 C28.634857,78.928 29.597257,79.6806 30.594757,80.2775 C32.243757,81.264 34.107457,81.8571 36.657257,82.1212 C41.756457,82.6493 50.124657,82.259 69.438557,82.34 C69.892157,82.33 70.341257,82.1631 70.688557,81.8712 C74.575357,78.7006 76.263357,75.6639 77.032257,72.2462 C77.410557,72.1297 77.752657,71.8981 78.001057,71.59 C80.907757,67.9572 81.959457,63.7658 81.282257,60.1524 C81.560757,60.0235 81.808857,59.8292 82.001057,59.5899 C85.396257,55.607 86.081857,50.5067 84.876057,46.6524 C86.950157,44.1993 87.807457,41.3215 87.501057,38.65241 C87.012457,35.27391 84.558657,31.87861 81.438557,31.33991 L55.688557,31.33991 C57.227957,21.21151 56.207457,11.90301 52.782257,5.87121 C50.932957,2.61491 48.236457,0.79271 45.563557,0.40241 C40.873957,-0.21759 37.090057,2.72471 36.688557,8.21491 Z M44.157057,4.33991 C46.093457,4.13781 48.252257,5.64251 49.313257,7.83991 C52.238157,12.99061 53.452057,22.62411 51.469557,32.96491 C51.249557,34.11841 52.263957,35.34241 53.438257,35.33991 L80.875757,35.33991 C82.377257,36.11021 83.342057,37.43621 83.532057,39.0899 C83.715857,40.6917 83.064357,42.5751 81.438257,44.3399 L67.407057,44.3399 C66.350257,44.3399 65.375757,45.2832 65.375757,46.3399 C65.375757,47.3967 66.350457,48.355 67.407057,48.3399 L81.188257,48.3399 C81.788757,50.5489 81.327157,53.4889 79.344557,56.3399 L67.407057,56.3399 C66.350257,56.3399 65.375757,57.2832 65.375757,58.3399 C65.375757,59.3967 66.350457,60.355 67.407057,60.3399 L77.188257,60.3399 C77.788757,62.5489 77.327157,65.4889 75.344557,68.34 L67.407057,68.34 C66.350257,68.34 65.375757,69.2833 65.375757,70.34 C65.375757,71.3968 66.350457,72.355 67.407057,72.34 L72.938257,72.34 C72.321757,74.4796 71.193757,76.1206 68.594557,78.34 C50.006757,78.276 41.387857,78.5691 37.063257,78.1212 C34.858257,77.8928 33.822857,77.5688 32.657057,76.8712 C31.606357,76.2426 30.320057,75.1339 28.438257,73.6212 L28.438257,42.4337 C37.731157,30.61451 40.228457,20.67731 40.688257,8.37121 C41.273757,5.69031 42.650857,4.49721 44.157057,4.33991 Z M5.438257,38.33991 L23.438257,38.33991 C24.026857,38.33991 24.438257,38.75131 24.438257,39.3399 L24.438257,75.34 C24.438257,75.9286 24.026857,76.34 23.438257,76.34 L5.438257,76.34 C4.849657,76.34 4.438257,75.9286 4.438257,75.34 L4.438257,39.3399 C4.438257,38.75131 4.849657,38.33991 5.438257,38.33991 Z M14.438257,63.3087 C12.781357,63.3087 11.438257,64.6518 11.438257,66.3087 C11.438257,67.9655 12.781357,69.3087 14.438257,69.3087 C16.095057,69.3087 17.438257,67.9655 17.438257,66.3087 C17.438257,64.6518 16.095057,63.3087 14.438257,63.3087 Z" id="Shape"></path>
            </g>
        </g>
    </g>
</svg>