<?xml version="1.0" encoding="UTF-8"?>
<svg width="30px" height="30px" viewBox="0 0 30 30" version="1.1" xmlns="http://www.w3.org/2000/svg" xmlns:xlink="http://www.w3.org/1999/xlink">
    <!-- Generator: Sketch 49.3 (51167) - http://www.bohemiancoding.com/sketch -->
    <title>x</title>
    <desc>Created with Sketch.</desc>
    <defs></defs>
    <g id="Welcome" stroke="none" stroke-width="1" fill="none" fill-rule="evenodd">
        <g id="Mobile-Portrait" transform="translate(-88.000000, -151.000000)" fill="#002250" fill-rule="nonzero">
            <g id="x" transform="translate(88.000000, 151.000000)">
                <g id="Group">
                    <path d="M21.40625,8.59375 C21.09375,8.28125 20.5625,8.28125 20.21875,8.59375 L15,13.8125 L9.78125,8.59375 C9.46875,8.28125 8.9375,8.28125 8.59375,8.59375 C8.28125,8.90625 8.28125,9.4375 8.59375,9.78125 L13.8125,15 L8.59375,20.21875 C8.28125,20.53125 8.28125,21.0625 8.59375,21.40625 C8.75,21.5625 8.96875,21.65625 9.1875,21.65625 C9.40625,21.65625 9.625,21.5625 9.78125,21.40625 L15,16.1875 L20.21875,21.40625 C20.375,21.5625 20.59375,21.65625 20.8125,21.65625 C21.03125,21.65625 21.25,21.5625 21.40625,21.40625 C21.71875,21.09375 21.71875,20.5625 21.40625,20.21875 L16.1875,15 L21.40625,9.78125 C21.71875,9.46875 21.71875,8.9375 21.40625,8.59375 Z" id="Shape"></path>
                    <path d="M15,0.15625 C6.8125,0.15625 0.15625,6.8125 0.15625,15 C0.15625,23.1875 6.8125,29.84375 15,29.84375 C23.1875,29.84375 29.84375,23.1875 29.84375,15 C29.84375,6.8125 23.1875,0.15625 15,0.15625 Z M15,28.1875 C7.71875,28.1875 1.8125,22.28125 1.8125,15 C1.8125,7.71875 7.71875,1.8125 15,1.8125 C22.28125,1.8125 28.1875,7.71875 28.1875,15 C28.1875,22.28125 22.28125,28.1875 15,28.1875 Z" id="Shape"></path>
                </g>
            </g>
        </g>
    </g>
</svg>